<svg xmlns="http://www.w3.org/2000/svg" xmlns:xlink="http://www.w3.org/1999/xlink" viewBox="0 0 320.39 325.82"><defs><style>.cls-1{isolation:isolate;}.cls-13,.cls-2{fill:#61376b;}.cls-3{opacity:0.48;}.cls-10,.cls-11,.cls-13,.cls-15,.cls-19,.cls-21,.cls-22,.cls-29,.cls-3,.cls-30,.cls-32,.cls-38{mix-blend-mode:multiply;}.cls-4{fill:#84529c;}.cls-22,.cls-5,.cls-6,.cls-7,.cls-8{fill:none;stroke-linecap:round;stroke-linejoin:round;}.cls-5{stroke:#268e26;}.cls-5,.cls-6,.cls-7,.cls-8{stroke-width:0.63px;}.cls-6{stroke:#fff;}.cls-7{stroke:#0032d0;}.cls-8{stroke:#d30000;}.cls-9{fill:#2b232d;}.cls-10,.cls-12{fill:#140716;}.cls-10,.cls-11,.cls-13,.cls-22{opacity:0.5;}.cls-14,.cls-15,.cls-21,.cls-23{fill:#a62e3a;}.cls-15{opacity:0.35;}.cls-16,.cls-26{fill:#3d243e;}.cls-17{fill:#1d111e;}.cls-18,.cls-19{fill:#fabd3c;}.cls-19{opacity:0.9;}.cls-20{fill:#fff;}.cls-21{opacity:0.28;}.cls-22{stroke:#1d111e;stroke-width:0.68px;}.cls-23{opacity:0.65;}.cls-23,.cls-26{mix-blend-mode:screen;}.cls-24,.cls-25{mix-blend-mode:color-dodge;}.cls-24{fill:url(#radial-gradient);}.cls-25{fill:url(#radial-gradient-2);}.cls-26{opacity:0.43;}.cls-27{fill:#5e2600;}.cls-28{fill:#ffc33b;}.cls-29{fill:#ffd47d;}.cls-30{opacity:0.78;}.cls-31{fill:#e17022;}.cls-32{opacity:0.2;}.cls-33,.cls-34,.cls-35{fill:#e4640a;}.cls-34{font-size:12.64px;}.cls-34,.cls-35{font-family:SegoePrint, Segoe Print;}.cls-35{font-size:21px;}.cls-36{letter-spacing:0.04em;}.cls-37{fill:#6bb1a2;}.cls-38{fill:#583929;opacity:0.3;}</style><radialGradient id="radial-gradient" cx="130.13" cy="128.2" r="15.25" gradientTransform="translate(-2.8 43.51) rotate(-1.85) scale(1 0.69)" gradientUnits="userSpaceOnUse"><stop offset="0.17" stop-color="#662346"/><stop offset="1" stop-color="#662346" stop-opacity="0"/></radialGradient><radialGradient id="radial-gradient-2" cx="204.57" cy="126.27" r="15.25" gradientTransform="translate(-2.72 45.32) rotate(-1.85) scale(1 0.69)" xlink:href="#radial-gradient"/></defs><g class="cls-1"><g id="Layer_2" data-name="Layer 2"><g id="OBJECTS"><path class="cls-2" d="M311.68,59.11c-.75-3.85-6.22-13-9.64-14.9s-14.2-3.66-16.19-5.47c-4.76-4.31-7.44-13-1-13.3,6-.24,11-5.61,11.2-7.8S298.17,10,285.85,0c3.46,8,4.22,13.27,2,18.36S270.57,25,273.32,29.79c1.25,2.19.24,12.66,2.05,14.42,5.26,5.1,16.18,8.1,16.15,10.22S288.78,66.14,285,66.28s-6.57-2.48-7-4.64a5.35,5.35,0,0,1,4.18-6.35c-3.12-4.46-12.48-1.51-13.26.91s-.16,12.37,4,15.89,8.76,2.39,14.18,2.93,8,4.16,12.73,1.66S312.7,64.37,311.68,59.11Z"/><g class="cls-3"><path class="cls-4" d="M311.68,59.11c-.75-3.85-6.22-13-9.64-14.9-.22-.12-.46-.24-.73-.36a5.52,5.52,0,0,0,1.19,2.47c.83,1,1.87,1.87,2.7,2.89a11.75,11.75,0,0,1,2.21,9.39A18.9,18.9,0,0,1,303,67.39c-1.92,2.28-4.56,4.37-7.52,4.15A18.28,18.28,0,0,0,298.26,56a44.34,44.34,0,0,1-3.59,8.16,15,15,0,0,1-6.41,6c-4.74,2.12-10.71.5-14.18-3.37a15.8,15.8,0,0,1-3.64-12.11,3.31,3.31,0,0,0-1.5,1.52c-.79,2.42-.16,12.37,4,15.89s8.76,2.39,14.18,2.93,8,4.16,12.73,1.66S312.7,64.37,311.68,59.11Z"/><path class="cls-4" d="M275.37,44.21c2.37,2.29,5.87,4.16,9,5.71-1.25-1-2.49-2.08-3.67-3.19-1.56-1.46-3.11-3.09-3.64-5.16-.66-2.54.35-5.28-.22-7.85-.24-1.11-.78-2.13-1.08-3.23a3.94,3.94,0,0,1,.27-3.28c.86-1.25,2.57-1.46,4-1.95a9,9,0,0,0,4.78-3.79c.06-.09.09-.18.14-.27-5,3.05-13.81,4.81-11.65,8.59C274.57,32,273.56,42.45,275.37,44.21Z"/></g><path class="cls-2" d="M8.35,136c.67-3.4,5.56-11.46,8.61-13.16S27,119,28.82,117.36c4.25-3.81,6.66-10.17.93-10.4-5.36-.21-7.22-5.63-7.43-7.56s-1.72-9.28,9.1-15.59c-3.08,7.07-3.77,11.73-1.81,16.22s15.46,5.85,13,10.1c-1.12,1.94-.22,11.19-1.84,12.74-3.16,3-8.59,5.21-11.82,6.89-1.57.82-1.44,4.37-1.43,5,0,1.88,1.28,7.51,4.67,7.63s5.87-2.19,6.22-4.11a4.72,4.72,0,0,0-3.74-5.6c2.79-3.95,11.15-1.34,11.85.8s.14,10.93-3.57,14-7.84,2.11-12.68,2.58-7.13,3.68-11.37,1.47S7.44,140.68,8.35,136Z"/><g class="cls-3"><path class="cls-4" d="M8.35,136c.67-3.4,5.56-11.46,8.61-13.16.19-.11.41-.21.65-.32a5,5,0,0,1-1.06,2.19c-.74.9-1.67,1.65-2.42,2.55a10.29,10.29,0,0,0-2,8.29,16.68,16.68,0,0,0,3.91,7.77c1.72,2,4.07,3.86,6.72,3.67a16,16,0,0,1-2.46-13.76,39.46,39.46,0,0,0,3.22,7.21,13.24,13.24,0,0,0,5.72,5.32c4.23,1.87,9.56.44,12.66-3a13.85,13.85,0,0,0,3.26-10.7,2.94,2.94,0,0,1,1.34,1.34c.71,2.14.14,10.93-3.57,14s-7.84,2.11-12.68,2.58-7.13,3.68-11.37,1.47S7.44,140.68,8.35,136Z"/><path class="cls-4" d="M40.78,122.87a32.76,32.76,0,0,1-8.05,5c1.13-.9,2.23-1.83,3.29-2.81a10.06,10.06,0,0,0,3.24-4.56c.59-2.25-.31-4.67.2-6.94.22-1,.69-1.88,1-2.85a3.42,3.42,0,0,0-.25-2.9c-.77-1.1-2.29-1.29-3.58-1.72a8,8,0,0,1-4.27-3.35c0-.08-.08-.16-.12-.24,4.43,2.69,12.34,4.25,10.41,7.59C41.5,112.07,42.4,121.32,40.78,122.87Z"/></g><path class="cls-5" d="M9.29,287.92A6.06,6.06,0,0,0,9,284.54"/><path class="cls-6" d="M8.66,288.16s-.34-2.62-1.79-2.89"/><path class="cls-7" d="M7.89,288.23s-.72-2.21-2.18-2"/><path class="cls-8" d="M10.32,288.34s-.24-2.78,1.2-3.59"/><path class="cls-9" d="M11,287l-3.89.93c.15.63,3.84,15.52,17,22.79,8.64,4.77,19.22,5.1,31.45,1,36.51-12.36,81.4-2.24,81.85-2.14l.9-3.9c-1.88-.43-46.43-10.48-84,2.25-11.11,3.76-20.59,3.54-28.2-.65C14.44,300.8,11,287.09,11,287Z"/><path class="cls-9" d="M7.08,287.89a1.09,1.09,0,0,0-.49-.83c1,.21,1,.41,1,.41l.4-1.24.41,1s.85-1.41,1.67-1.65a4.52,4.52,0,0,0,0,1.25l1.41-1.11A1.31,1.31,0,0,0,11,287c0,1-.4,1.43-.67,1.51a13.17,13.17,0,0,1-1.94.27C8.25,288.72,7.08,287.89,7.08,287.89Z"/><path class="cls-10" d="M56.58,310.6c-12.23,4.14-22.81,3.82-31.45-1-10.55-5.83-15-16.56-16.45-20.91-.15-.46-.27-.84-.35-1.14s-.18-.67-.2-.74A.93.93,0,0,0,8,286.4l-.35,1.08s0-.06-.16-.14a2.92,2.92,0,0,0-.88-.28,1.13,1.13,0,0,1,.49.83c.16.63,3.85,15.52,17,22.8,8.64,4.77,19.22,5.09,31.45.95,36.51-12.35,81.41-2.24,81.86-2.13l.28-1.21C131.62,307,90.48,299.12,56.58,310.6Z"/><path class="cls-6" d="M.31,278.45A7.84,7.84,0,0,1,4.65,282"/><path class="cls-6" d="M5.52,276s0,3.87,1.07,5.54"/><path class="cls-6" d="M11.05,276.22s-2.44,2.5-2.39,5.22"/><path class="cls-9" d="M261.89,311.46l-.05-4c26.54-.31,45.54-7.77,52.15-20.44,3.9-7.49,3-16.42-2.52-24.49-12.93-19-44-2.26-44.3-2.09l-1.92-3.51c1.4-.77,34.58-18.59,49.53,3.34,6.35,9.33,7.36,19.76,2.76,28.59C313.24,297.11,300.3,311,261.89,311.46Z"/><g class="cls-11"><path class="cls-12" d="M315.35,292.36c-5.94,8.16-20.08,18.71-53.46,19.11l-.05-4,1.19,0,0,2.52C294.42,309.59,308.8,300.26,315.35,292.36Z"/><path class="cls-12" d="M267.17,260.44l-1.93-3.51c.16-.08.7-.37,1.56-.79l1.53,2.8c.32-.17,31.38-16.88,44.3,2.09,5.51,8.07,6.42,17,2.52,24.49a24.63,24.63,0,0,1-3,4.48,23.76,23.76,0,0,0,1.85-3c3.91-7.49,3-16.42-2.51-24.49C298.54,243.56,267.48,260.27,267.17,260.44Z"/></g><path class="cls-2" d="M220.91,213.89c-2.28,10.17-15.68,13.46-54.66,12.87-39,.59-52.38-2.7-54.65-12.87-2.26-13.09,3.26-27.6,11.94-43.58a91.13,91.13,0,0,0,6.28-14.64c1.25-3.77,2.23-7.39,3-10.65.47-2,.83-3.87,1.14-5.56.2-1.18.38-2.26.53-3.24h0c0-.22.07-.43.09-.65.08-.49.14-1,.2-1.39s.1-.84.14-1.2c.21-1.77.27-2.78.27-2.78l4.5-.15,2-.08,4.57-.16,15.87-.57c0-.19,0-.3,0-.3l4.16.16,4.16-.16s0,.11,0,.3l23.08.83,2.81.1h0l1,0s0,.22.05.6v0c0,.19,0,.44.06.73,0,.55.12,1.27.22,2.15,0,.35.08.73.13,1.14.14,1.22.32,2.65.55,4.26h0c.08.53.16,1.09.25,1.66q.27,1.78.63,3.81c.56,3.21,1.28,6.83,2.19,10.71,0,.12.07.26.1.39q.25,1.08.54,2.19c1,4,2.21,8.17,3.65,12.45C210.82,185.46,223.08,201.33,220.91,213.89Z"/><path class="cls-2" d="M109.34,79.15c-1.72-4.3-2.23-9.22-3-16.77-1.13-11.16-1.68-20.41-2.19-26.12-.66-7.33,3.36-5.88,6.23-4.71,5.14,2.1,12.41,7,16.11,9.69,5.76,4.15,14.8,15.93,14.56,21.39C135.33,69.83,125,77.19,109.34,79.15Z"/><path class="cls-13" d="M141.05,62.63q-.42.52-.87,1c-1.91-6-9.18-15-14.08-18.57-3.7-2.66-11-7.59-16.11-9.69-2.11-.85-4.81-1.86-5.87.54-.52-7,3.42-5.57,6.26-4.41,5.14,2.1,12.41,7,16.11,9.69C132.25,45.39,141.28,57.17,141.05,62.63Z"/><path class="cls-14" d="M114.29,78.32c-1.26-3.32-.82-7.63-1.53-13.39-1.05-8.51-1.67-15.56-2.16-19.91-.63-5.59,2.07-4.38,4-3.41,3.46,1.73,8.41,5.67,10.93,7.8,3.93,3.31,11.84,13.08,11.83,17.23C133.77,72,124.61,77.25,114.29,78.32Z"/><path class="cls-15" d="M137.29,65.93a55.64,55.64,0,0,0-8.92-10.52c-2.52-2.12-7.47-6.06-10.93-7.8-1.93-1-4.63-2.17-4,3.41.49,4.36,1.1,11.41,2.16,19.92.33,2.67.41,5,.53,7.14-.61.1-1.23.17-1.85.24-1.25-3.32-.81-7.63-1.52-13.39-1.05-8.51-1.67-15.55-2.16-19.91-.63-5.58,2.07-4.38,4-3.41,3.47,1.73,8.41,5.68,10.93,7.8C129.25,52.54,136.54,61.48,137.29,65.93Z"/><path class="cls-16" d="M196,55.6c2.22,9,29.74,25,33.59,21.66,2.79-2.39,3.14-16.73,3.24-20.38.31-11.19-1.12-19-.12-23.2s-2.26-8.24-9.37-3.85S203.81,43.64,196,55.6Z"/><path class="cls-16" d="M196,55.6c2.22,9,29.74,25,33.59,21.66,2.79-2.39,3.14-16.73,3.24-20.38.31-11.19-1.12-19-.12-23.2s-2.26-8.24-9.37-3.85S203.81,43.64,196,55.6Z"/><path class="cls-2" d="M196,55.6c2.22,9,29.74,25,33.59,21.66,2.79-2.39,3.14-16.73,3.24-20.38.31-11.19-1.12-19-.12-23.2s-2.26-8.24-9.37-3.85S203.81,43.64,196,55.6Z"/><path class="cls-13" d="M229.62,77.26a2.71,2.71,0,0,1-2,.42c1.75-4.71,2-15.39,2.1-18.47.31-11.19-1.11-19-.12-23.2s-2.26-8.24-9.37-3.85c-1.6,1-3.46,2.22-5.48,3.69a94.16,94.16,0,0,1,8.57-6c7.11-4.39,10.36-.35,9.37,3.85s.43,12,.12,23.2C232.76,60.53,232.41,74.87,229.62,77.26Z"/><path class="cls-14" d="M199,60.48c1.32,5.35,19.44,17.05,21.74,15.08,1.66-1.42,5-13.17,5.77-21.39.65-6.64-.67-11.32-.07-13.83s-1.35-4.91-5.59-2.29S203.6,53.36,199,60.48Z"/><path class="cls-15" d="M226.48,54.17c-.81,8.22-4.11,20-5.77,21.39a.88.88,0,0,1-.54.21,88,88,0,0,0,3.44-16.21c.65-6.64-.67-11.32-.08-13.83s-1.34-4.91-5.58-2.29c-3.46,2.13-12.76,11-18.58,18.05a4.32,4.32,0,0,1-.4-1c4.63-7.13,17.61-19.82,21.86-22.43s6.17-.21,5.58,2.29S227.14,47.53,226.48,54.17Z"/><path class="cls-2" d="M238.4,103a32.67,32.67,0,0,1-5.15,18.92,42,42,0,0,1-8.1,9.29c-.62.53-1.24,1.05-1.89,1.55s-1.29,1-2,1.47c-.5.35-1,.71-1.53,1.05s-1,.68-1.57,1q-2.46,1.53-5.07,2.82l-.29.13-.61.26h0l-.43.16-.4.14q-.62.21-1.35.42l-1,.27-.82.21-.54.13h0l-1.55.34-2,.39c-.89.18-1.82.34-2.79.5h0l-.89.14-1.59.24-.12,0-.11,0h0l-1.39.2-1.7.23-.21,0h-.07l-2.56.31-1.51.18-1.46.15-1.14.12-2.24.22-2,.17-1,.08-3,.23-2,.14-2.74.17-1.24.07-1.09,0-1.81.08L170,145l-1.8,0-1.27,0-1.56,0a142.28,142.28,0,0,1-24-1.23l-1-.16-.93-.13-2.4-.31H137l-.36-.05L135.1,143h0l-1.65-.2-1.6-.2-1.42-.2-.18,0c-.53-.08-1.06-.16-1.59-.26s-1.06-.18-1.59-.29l-1.52-.34-.1,0c-.44-.11-.88-.22-1.32-.35l-.19-.05a33.76,33.76,0,0,1-9.12-4.16c-.46-.3-.92-.61-1.36-.93s-.86-.65-1.28-1l0,0c-.5-.38-1-.79-1.46-1.22l-.27-.25a38.25,38.25,0,0,1-5.12-5.63,17,17,0,0,1-2.24-4.1c-2.44-6.27-1.76-14-1.06-20.34.33-3.05.79-6.06,1.24-9.09a48.88,48.88,0,0,1,5.58-16.7,38.51,38.51,0,0,1,4.44-6.38h0A30.15,30.15,0,0,1,115.37,69a34.46,34.46,0,0,1,6-4.75A69.92,69.92,0,0,1,131.91,59l1.48-.59h0c1.12-.44,2.27-.86,3.44-1.26.73-.25,1.48-.5,2.24-.73,0,0,0,0,0,0a108.37,108.37,0,0,1,18.18-4h0a118.26,118.26,0,0,1,16.8-1c2.7,0,5.41.08,8.11.2a100.91,100.91,0,0,1,15.43,1.71h0a59.64,59.64,0,0,1,5.78,1.47h0c.52.15,1,.32,1.55.49a43.77,43.77,0,0,1,14.35,8q1.67,1.42,3.25,3.07c.31.32.61.65.91,1,0,0,0,0,.05,0s.21.24.31.37.26.29.38.44c.32.36.62.73.93,1.12h0l0,0c.33.41.65.82,1,1.26l.5.69,0,0,.16.22c.2.28.38.57.58.86s.38.56.56.85.22.33.32.5l.28.43.3.52c.24.4.48.79.71,1.2h0l.49.88c.92,1.66,1.75,3.28,2.51,4.86.59,1.24,1.13,2.46,1.62,3.65.25.6.48,1.19.71,1.78s.44,1.17.64,1.74.39,1.16.57,1.72.42,1.4.61,2.09.37,1.37.52,2c.31,1.34.55,2.66.74,3.94,0,.28.08.55.11.84h0c0,.27.07.56.09.84l0,.23,0,.24c0,.12,0,.23,0,.34l0,.35Q238.37,102.21,238.4,103Z"/><path class="cls-17" d="M156.65,99.82l-.28-3c-.09-1.59-1.14-1.75-1.71-.11l-.17.74c-.4,2.18-1.18,2.79-3.47,2.36l-42-6.2c-1.77-.37-1.77,2.87-.44,3l44.91,6.21C155.25,103.12,156.66,102.17,156.65,99.82Z"/><path class="cls-18" d="M154.88,103.06c-1.88,31.41-49.1,26.67-45.53-6.3Z"/><path class="cls-19" d="M154.72,104.89c-3.52,28.92-47.47,24.34-45.5-6.64C111,124.22,148,128.21,154.72,104.89Z"/><path class="cls-17" d="M148.48,102c-1.35,22.63-35.36,19.21-32.79-4.54Z"/><path class="cls-20" d="M121.48,103.36c-6,2.16-8.56,6.52-5.93,7.13s6.81-3.93,7.74-4.82C125.18,103.86,124.67,102.22,121.48,103.36Z"/><path class="cls-20" d="M123,109.79c-4.13,1.48-5.85,4.46-4,4.88s4.65-2.69,5.29-3.29C125.55,110.14,125.2,109,123,109.79Z"/><path class="cls-17" d="M223.62,96.34l-44.89,6.21c-2.82.36-3.9-.55-3.75-3.58,0-.62.22-2.45.22-2.45.11-1.84,1.47-1.07,1.69-.12h0c.41,3.29,2.42,3.36,4.48,3l42-6.2C225.62,93,225.76,96.11,223.62,96.34Z"/><path class="cls-18" d="M176.77,102.82c1.88,31.42,49.1,26.67,45.53-6.3Z"/><path class="cls-19" d="M177.3,106.93c7.86,21.74,43.75,17.21,45.15-8.53C224,128.19,182.77,133.2,177.3,106.93Z"/><path class="cls-17" d="M183.16,101.71c1.36,22.63,35.37,19.21,32.8-4.53Z"/><path class="cls-20" d="M210.17,103.12c6,2.16,8.55,6.52,5.93,7.14s-6.81-3.93-7.74-4.82C206.47,103.63,207,102,210.17,103.12Z"/><path class="cls-20" d="M208.63,109.56c4.13,1.47,5.84,4.46,4.05,4.88s-4.65-2.69-5.29-3.3C206.1,109.9,206.44,108.78,208.63,109.56Z"/><path class="cls-14" d="M170.22,111.22c-.54-1.34-8.91-1.34-9.77.35-.67,1.31,2.78,5.91,4.88,5.9C167,117.47,170.94,113,170.22,111.22Z"/><path class="cls-21" d="M165.34,117.47c-1.67,0-4.18-2.87-4.82-4.73,1.06,1.44,2.59,2.79,3.73,2.79,1.3,0,4.12-2.91,4.82-5,.62.16,1,.37,1.15.64C170.94,113,167,117.47,165.34,117.47Z"/><path class="cls-22" d="M260.4,121.27c-1.22-.2-2.65-1.06-2.41-2.27a1.78,1.78,0,0,1,1.53-1.27,4.63,4.63,0,0,1,2.07.34c1.64.56,3.49,1.76,3.31,3.49a2.87,2.87,0,0,1-1.65,2.15,8.52,8.52,0,0,1-2.73.7c-2.37.34-5.09.57-6.83-1.07a5.6,5.6,0,0,0-1.58-1.38c-1.35-.53-2.66.81-3.53,2s-2.27,2.46-3.58,1.81c-.89-.44-1.16-1.56-1.77-2.34a3.21,3.21,0,0,0-4-.81c-.51.29-.93.71-1.45,1a1.46,1.46,0,0,1-1.64-.06,4.14,4.14,0,0,1-.49-.72,2.56,2.56,0,0,0-2.32-.9h-.07a10.14,10.14,0,0,0-2.42.71,26.74,26.74,0,0,1-5.31,1.22c-1.44.19-2.9.31-4.36.42-1.14.1-2.28.18-3.4.3-8.39.85-13.81,4.1-22.07,2.45m62.73,9.89a5.13,5.13,0,0,0,2.95-.61,2,2,0,0,0,.72-2.64,2.54,2.54,0,0,0-1.44-.83,12.18,12.18,0,0,0-8.64.77,7.81,7.81,0,0,1-3.16,1.18c-1.55,0-2.9-1.18-4.45-1.25s-2.69.81-4,1.28a7.52,7.52,0,0,1-7-1.12c-.64-.5-1.33-1.14-2.13-1a2.2,2.2,0,0,0-.79.37c-1.34.92-2.54,2.25-4.15,2.45a7.14,7.14,0,0,1-3.4-.74c-.5-.19-1-.38-1.61-.55h0c-1-.31-2.17-.6-3.4-.86-1-.22-2.08-.42-3.19-.6a101.13,101.13,0,0,0-19-1.33m-1.43,4.67.11,0c.73.15,1.58.3,2.51.45h0l1.84.29,3.5.54,2.6.44h0a61.32,61.32,0,0,1,7.36,1.65h0a18.58,18.58,0,0,1,2.5.94c2.06,1,4.16,2.24,6.45,2.1,1.22-.07,2.42-.55,3.63-.38,1.62.22,2.94,1.55,4.57,1.72,1.29.12,2.56-.51,3.85-.41a23.74,23.74,0,0,1,2.61.66c1.62.31,3.69-.07,4.56,1.32.34.53.39,1.2.71,1.74a2.91,2.91,0,0,0,1.2,1.05c2.37,1.27,5.25.93,7.91.56.73-.1,1.59-.3,1.88-1a1.4,1.4,0,0,0-.82-1.68,2.65,2.65,0,0,0-2,.11"/><path class="cls-23" d="M166.13,110.93a6.49,6.49,0,0,0-4.87.74c-.25.18-.17.69.17.7a10.22,10.22,0,0,0,2.18-.41,19.51,19.51,0,0,1,2.4-.24C166.4,111.7,166.53,111.05,166.13,110.93Z"/><ellipse class="cls-24" cx="130.13" cy="128.2" rx="16.85" ry="11.56"/><ellipse class="cls-25" cx="204.57" cy="126.27" rx="16.85" ry="11.56"/><path class="cls-26" d="M152.48,97.61c-3.94,0-7.93-1.25-11.77-2.07-3.69-.78-7.42-1.75-11.17-2.22-.52-.06-.59.75-.12.89,3.94,1.21,8.1,1.89,12.13,2.76l5.79,1.24c1.69.36,3.57,1,5.28.45A.54.54,0,0,0,152.48,97.61Z"/><path class="cls-26" d="M222.82,91.42c-7.23.22-14.5,1.72-21.64,2.74l-11,1.57c-2,.28-11.68,2.56-11.6-1,0-.6-1-.77-1.08-.15-.51,3.5,4.05,3.34,6.31,3.17,4.23-.33,8.44-1.12,12.63-1.72,8.76-1.25,17.54-2.81,26.37-3.43C223.57,92.55,223.59,91.4,222.82,91.42Z"/><path class="cls-2" d="M154.66,55.5C157.83,51,165.78,44.44,168,46.14c.59.55-2.19,3.08-2.57,4.91,3-2.12,9.75-7,9.68-4.95.07,1-1.38,3-2.07,4.43,1.58-1.48,9-5.82,9.3-3.68a16.22,16.22,0,0,1-.47,6.39l-16.24,2Z"/><path class="cls-13" d="M238.4,103a32.67,32.67,0,0,1-5.15,18.92,42,42,0,0,1-8.1,9.29c-.62.53-1.24,1.05-1.89,1.55s-1.3,1-2,1.46c-.5.36-1,.71-1.52,1.06s-1,.68-1.57,1q-2.46,1.51-5.07,2.81l-.29.14-.61.26h0l-.43.16-.4.14q-.62.21-1.35.42l-1,.27-.82.21-.54.13h0l-1.55.34-2,.39c-1.16.22-2.39.43-3.69.64l-1.59.24-.12,0h-.14l-1.39.2-1.7.23-.21,0h-.07l-2.56.31-1.51.18-1.46.15-1.14.12-2.24.22-2,.17-1,.08-3,.23-2,.14-2.74.17-1.24.07-1.09,0-1.81.08L170,145l-1.8,0-1.27,0-1.56,0a142.28,142.28,0,0,1-24-1.23l-1.91-.29-2.4-.31H137L135.1,143h0l-1.65-.2-1.6-.2-1.42-.2-.18,0c-.53-.08-1.06-.16-1.59-.26s-1.06-.18-1.59-.29l-1.52-.34-.1,0c-.44-.11-.88-.22-1.32-.35l-.19-.05a33.76,33.76,0,0,1-9.12-4.16c-.46-.3-.92-.61-1.36-.93s-.89-.65-1.32-1l0,0a34.59,34.59,0,0,0,8.28,2.67h0c2.45.56,5.29,1.08,8.43,1.55,1,.16,2.1.31,3.2.46h0c1.64.22,3.34.42,5.1.61l.37,0h0c1.39.14,2.82.28,4.27.4,16.32,1.4,36.27,1.41,52.83-1.65l.78-.15c1.49-.28,2.94-.59,4.36-.93.52-.12,1-.24,1.54-.38l.88-.23a60,60,0,0,0,12.46-4.64,32,32,0,0,0,6.41-4.28h0a35.25,35.25,0,0,0,4.4-4.63c11.69-14.83,7.18-35,3.19-46.2h0c-.19-.52-.38-1-.56-1.5a69.69,69.69,0,0,0-3-6.86c.33.41.65.82,1,1.26l.5.69,0,0,.16.22c.2.28.38.57.58.86s.38.56.56.85.22.33.32.5l.28.43.3.52c.24.4.48.79.71,1.2h0l.49.88c.92,1.66,1.75,3.28,2.51,4.86.59,1.24,1.13,2.46,1.62,3.65.25.6.48,1.19.71,1.78s.44,1.17.64,1.74.39,1.16.56,1.72.43,1.4.62,2.09.37,1.37.52,2c.31,1.34.55,2.66.74,3.94,0,.28.08.55.11.84h0c0,.27.07.56.09.84l0,.23a1.94,1.94,0,0,1,0,.24l0,.34,0,.35Q238.37,102.21,238.4,103Z"/><path class="cls-22" d="M144.57,127c-8.27,1.65-13.69-1.6-22.07-2.45-2.65-.27-5.33-.38-8-.75a26.34,26.34,0,0,1-5.11-1.19,9.65,9.65,0,0,0-2.5-.72,2.54,2.54,0,0,0-2.31.9,4.14,4.14,0,0,1-.49.72,1.24,1.24,0,0,1-1.09.25,1.77,1.77,0,0,1-.56-.19c-.51-.28-.94-.7-1.44-1a3.23,3.23,0,0,0-4,.81c-.6.78-.88,1.9-1.77,2.34-1.3.65-2.7-.64-3.57-1.81s-2.18-2.5-3.54-2c-.65.26-1.06.9-1.58,1.38-1.73,1.64-4.46,1.41-6.82,1.07a8.45,8.45,0,0,1-2.73-.7,2.91,2.91,0,0,1-1.66-2.15c-.17-1.73,1.67-2.93,3.32-3.49a4.61,4.61,0,0,1,2.07-.34A1.77,1.77,0,0,1,82.26,119c.25,1.21-1.18,2.07-2.4,2.27m64.71,10.15c-6.9-.34-20.78.85-27.22,3.35l-.76.3h0a5.73,5.73,0,0,1-2.63.44c-1.36-.17-2.43-1.15-3.55-2-.2-.15-.4-.3-.61-.44a2.12,2.12,0,0,0-.79-.37c-.79-.15-1.49.49-2.13,1a7.5,7.5,0,0,1-7,1.12c-1.34-.47-2.61-1.35-4-1.28s-2.9,1.27-4.46,1.25a7.76,7.76,0,0,1-3.15-1.18,12.19,12.19,0,0,0-8.64-.77,2.5,2.5,0,0,0-1.44.83,2,2,0,0,0,.71,2.64,5.18,5.18,0,0,0,3,.61M91,146.22a2.65,2.65,0,0,0-2-.11,1.39,1.39,0,0,0-.82,1.68c.28.69,1.14.89,1.88,1,2.66.37,5.54.71,7.9-.56a2.87,2.87,0,0,0,1.21-1.05c.32-.54.37-1.21.7-1.74.88-1.39,3-1,4.56-1.32a24.5,24.5,0,0,1,2.62-.66c1.29-.1,2.56.53,3.85.41,1.63-.17,3-1.5,4.57-1.72,1.21-.17,2.41.31,3.63.38a10.25,10.25,0,0,0,5-1.4l1.41-.7a16.4,16.4,0,0,1,2-.79h0c.43-.14.87-.28,1.34-.41A88.39,88.39,0,0,1,138,137.4l2-.32,1.22-.19h0c1.83-.27,3.48-.54,4.78-.8"/><path class="cls-13" d="M198.57,142.45a42.36,42.36,0,0,0-3.11-3.52c-.29-.3-.59-.59-.89-.88a42.34,42.34,0,0,0-3.79-3.27,39.55,39.55,0,0,0-16-7.75c-.15.64-.37,1.14-.68,1.24-.66.2-1.64-.79-2.41-1.73a27.59,27.59,0,0,0-11,1c-.48.75-1,1.36-1.52,1.31-.23,0-.44-.25-.64-.57a31,31,0,0,0-2.95,1.35,38.07,38.07,0,0,0-6.18,4c-.4.31-.79.63-1.18,1a87.44,87.44,0,0,0-8.9,9c-2.74,3.12-5.55,6.22-8,9.56a.6.6,0,0,0-.09.13c.42-1.8,2.68-8.27,3-9.79,0,0,1-.37,1-.38-.64-.07.64.08,0,0,.68-.92,1.38-1.82,2.11-2.72l.45-.55c.51-.61,1-1.21,1.56-1.81l.77-.85c.74-.79,1.49-1.57,2.27-2.32a53.79,53.79,0,0,1,4.22-3.75l.54-.44a40.66,40.66,0,0,1,9.71-5.71c-1.29-1.13-1.22-2-1.22-2l21.1-1a3.17,3.17,0,0,1-.37,1.65,41.5,41.5,0,0,1,11.73,4.8,49.54,49.54,0,0,1,10.77,8.58c.12.11.23.23.34.35s.5.53.74.8c.92,1,1.79,2.08,2.59,3.15a9.94,9.94,0,0,1,5.23-.34l-1.55.34-2,.39c-.89.18-1.82.34-2.8.5l-.89.14-1.59.24-.12,0Z"/><path class="cls-27" d="M283.47,325.82H50.63A13.67,13.67,0,0,1,37,312.14h260.2A13.67,13.67,0,0,1,283.47,325.82Z"/><path class="cls-27" d="M289.59,177.41V297.79A19.56,19.56,0,0,1,270,317.35h-206A19.55,19.55,0,0,1,44.51,297.8V177.41a19.55,19.55,0,0,1,19.55-19.55H270A19.55,19.55,0,0,1,289.59,177.41Z"/><rect class="cls-28" x="52.5" y="163.06" width="229.1" height="149.09" rx="13.53"/><path class="cls-29" d="M281.6,172.51v126.1a13.56,13.56,0,0,1-5.43,10.85,13.51,13.51,0,0,0,2.67-8.09V175.27a9.46,9.46,0,0,0-9.46-9.46H63.27a13.52,13.52,0,0,0-8.09,2.68A13.54,13.54,0,0,1,66,163.05H272.14A9.46,9.46,0,0,1,281.6,172.51Z"/><g class="cls-30"><path class="cls-31" d="M292.14,312.15Q261,313,230,313.32c-10.36.14-20.73.16-31.09.25l-31.09.07-31.1-.08c-10.36-.08-20.73-.11-31.09-.25q-31.1-.3-62.19-1.16Z"/></g><g class="cls-32"><path class="cls-33" d="M245.16,177.84H85.68a8,8,0,0,0-8,8V292.64a8,8,0,0,0,8,8H245.16a8,8,0,0,0,8-8V185.83A8,8,0,0,0,245.16,177.84Z"/><circle cx="88.58" cy="187.58" r="2.06"/><circle cx="98.31" cy="187.58" r="2.06"/><circle cx="108.05" cy="187.58" r="2.06"/></g><path class="cls-20" d="M256.39,182.57V289.38a8,8,0,0,1-8,8H88.94a8,8,0,0,1-8-8V182.57a8,8,0,0,1,8-8H248.42A8,8,0,0,1,256.39,182.57Z"/><path class="cls-33" d="M256.39,182.57v11.49H81V182.57a8,8,0,0,1,8-8H248.42A8,8,0,0,1,256.39,182.57Z"/><circle class="cls-20" cx="91.84" cy="184.32" r="2.06"/><circle class="cls-20" cx="101.57" cy="184.32" r="2.06"/><circle class="cls-20" cx="111.3" cy="184.32" r="2.06"/><text class="cls-34" transform="translate(87.4 262.37)">INTERNET CONNECTION</text><text class="cls-35" transform="translate(94.61 239.73)">ER<tspan class="cls-36" x="29.67" y="0">R</tspan><tspan x="45.91" y="0">... CHECK</tspan></text><path class="cls-13" d="M126,157.86h4.31c-1,1.9-1.95,3.77-2.82,5.58l-.89,1.88c-1.13,2.42-2.24,4.82-3.32,7.22-2.78,6.16-5.36,12.32-7.48,18.59-.62,1.85-1.22,3.71-1.76,5.59a5.74,5.74,0,0,0-.08.78,1.28,1.28,0,0,0,0,.19v.45c0,.06,0,.12,0,.18s0,.23,0,.33l0,.13a1.76,1.76,0,0,0,.07.27.24.24,0,0,0,0,.08,1.43,1.43,0,0,0,.29.5h0l-.08-.06a12.44,12.44,0,0,1-1.07-.82s0,0-.07,0l.74,2a1.85,1.85,0,0,1-1-1.71,5.17,5.17,0,0,0-.15.64,2.77,2.77,0,0,0-.47-1.08l.21,2.46c-.75-.57-.66-1.79-.5-2.6a.36.36,0,0,0-.2.12s-.6.44-.82.42l-.7,1.75a4.26,4.26,0,0,1,.59-2.07c-.06-.36-.24-.9-.52-1-.46.75-1.24,1.71-2.23,1.75l1.61-1.58c-.81.36-1.12.13-1.12.13.86-.33,1.67-1.91,1.67-1.91h0c3.14-11.08,7.88-21.62,12.88-32.32C124.06,161.83,125,159.87,126,157.86Z"/><path class="cls-13" d="M219.23,162.64l-.26.17a1.2,1.2,0,0,1-1.66-.39l-1.92-3.07-4.67,2.92,1.91,3.07a1.19,1.19,0,0,1-.38,1.66l-.26.17a1.2,1.2,0,0,1-1.66-.39l-1.92-3.07-2.94,1.83a2.11,2.11,0,0,1-2.91-.67l-4.23-6.76-.16-.25h19.61l-.08,0,1.92,3.07A1.2,1.2,0,0,1,219.23,162.64Z"/><path class="cls-5" d="M111.55,194.68a6.13,6.13,0,0,0-1.26,3.16"/><path class="cls-6" d="M112.22,194.76s-.88,2.48.29,3.39"/><path class="cls-7" d="M112.94,195s-.36,2.29,1,2.8"/><path class="cls-8" d="M110.82,193.84s-1,2.58-2.69,2.65"/><path class="cls-9" d="M202.44,138.29c-9.57-12.74-27.83-23.33-45.31-16.49A40.38,40.38,0,0,0,147,127.67c-11.66,9.12-18.86,22.5-23.84,33.14s-9.74,21.24-12.88,32.32h0s-.81,1.58-1.67,1.91c0,0,.38.29,1.43-.28.57-.34.86.9.86,1.24s.9-.34.9-.34.48-.66,1,1.1c.14-.81.29-1.14.52-.91s1.2.91,1.2.91-.77-.5-.41-2.94c3.06-10.69,7.68-21,12.56-31.4,4.79-10.25,11.71-23.12,22.73-31.74a37,37,0,0,1,9.15-5.33c15.62-6.11,32.14,3.62,40.87,15.24,1,1.37,2,2.84,3,4.36l3.24-2C204.61,141.31,203.54,139.75,202.44,138.29Z"/><path class="cls-10" d="M205.62,142.93l-3.24,2c-1-1.53-2-3-3-4.37-8.73-11.63-25.25-21.35-40.86-15.24a36.6,36.6,0,0,0-9.16,5.32c-11,8.62-17.93,21.5-22.73,31.76-4.88,10.43-9.49,20.7-12.56,31.38-.31,2.09.21,2.76.37,2.92l-.8-.58a8,8,0,0,1,0-.84,18,18,0,0,1,.84-4.59c.4-1.32.82-2.63,1.25-3.94.88-2.63,1.85-5.23,2.86-7.8s2.12-5.18,3.24-7.74,2.31-5.17,3.49-7.73l1.34-2.87c4.8-10.25,11.71-23.13,22.73-31.74a36,36,0,0,1,9.16-5.33c15.61-6.11,32.13,3.61,40.86,15.24,1,1.36,2,2.83,3,4.36l2.42-1.51C205.08,142.08,205.35,142.51,205.62,142.93Z"/><path class="cls-20" d="M175.08,121s-.05,4.12-1,4.41c-1.21.37-3.53-3.28-3.53-3.28Z"/><path class="cls-20" d="M157.29,121.82s.84,4,1.85,4.12c1.25.12,2.82-3.91,2.82-3.91Z"/><path class="cls-2" d="M154.82,119.46s3.49,7.67,10.9,1.71c3.95,4.52,11.16,1.55,10.89-2.25"/><path class="cls-20" d="M209.22,156.77h1.54a.59.59,0,0,1,.59.59v6.23a1.21,1.21,0,0,1-1.21,1.21h-.3a1.21,1.21,0,0,1-1.21-1.21v-6.23a.59.59,0,0,1,.59-.59Z" transform="matrix(0.85, -0.53, 0.53, 0.85, -53.29, 135.64)"/><path class="cls-13" d="M202.07,157.86h-3.94l-2.19-3.51a10.14,10.14,0,0,1,2.67-13.59q.27,1.78.63,3.81c.56,3.21,1.28,6.83,2.19,10.71,0,.12.07.26.1.39Q201.78,156.75,202.07,157.86Z"/><rect class="cls-20" x="215.61" y="152.41" width="2.72" height="8.03" rx="1.21" transform="translate(-49.92 138.68) rotate(-31.99)"/><path class="cls-37" d="M219.38,154l-14.22,8.88a1.76,1.76,0,0,1-2.42-.56l-5.66-9.07a10.13,10.13,0,0,1,3.23-14h0a10.12,10.12,0,0,1,14,3.23l5.67,9.07A1.76,1.76,0,0,1,219.38,154Z"/><path class="cls-38" d="M201.67,138.54a10.1,10.1,0,0,0-2,13l6.6,10.56-1.18.73a1.69,1.69,0,0,1-2.32-.54l-5.67-9.08a10.2,10.2,0,0,1,3.23-14A8,8,0,0,1,201.67,138.54Z"/></g></g></g></svg>